 <svg  version="1.0" xmlns="http://www.w3.org/2000/svg"  width="1350.000000pt" height="948.000000pt" viewBox="0 0 1350.000000 948.000000"  preserveAspectRatio="xMidYMid meet">  <g transform="translate(0.000000,948.000000) scale(0.100000,-0.100000)" fill="#ffffff" stroke="none"> <path d="M6744 8799 c-40 -40 -43 -41 -117 -43 -73 -1 -76 -2 -116 -43 l-41 -41 0 -83 c1 -71 5 -90 25 -124 14 -22 28 -47 32 -55 4 -8 33 -59 65 -113 32 -54 58 -100 58 -102 0 -2 27 -49 60 -105 33 -56 60 -105 60 -110 0 -4 7 -13 15 -20 22 -18 19 -37 -12 -79 -31 -41 -42 -57 -76 -121 -14 -25 -34 -61 -46 -80 -11 -19 -24 -42 -28 -50 -3 -8 -39 -69 -78 -135 -39 -66 -74 -127 -78 -135 -4 -8 -16 -28 -27 -45 -11 -16 -23 -37 -27 -45 -4 -8 -32 -58 -63 -110 -31 -52 -59 -102 -63 -110 -4 -8 -13 -24 -20 -35 -7 -11 -30 -52 -52 -90 -22 -39 -45 -79 -52 -90 -7 -11 -17 -29 -23 -40 -6 -11 -19 -33 -30 -50 -11 -16 -23 -37 -27 -45 -4 -8 -25 -46 -48 -85 -22 -38 -44 -77 -48 -85 -4 -8 -16 -28 -27 -45 -10 -16 -31 -52 -45 -80 -14 -27 -35 -63 -45 -80 -11 -16 -26 -43 -34 -60 -8 -16 -29 -52 -45 -80 -17 -27 -35 -59 -41 -70 -6 -11 -19 -33 -30 -50 -11 -16 -23 -37 -27 -45 -4 -8 -26 -48 -50 -88 -24 -41 -43 -76 -43 -79 0 -3 -13 -25 -30 -50 -16 -24 -30 -47 -30 -51 0 -5 -19 -37 -43 -73 -23 -36 -64 -108 -90 -161 -46 -95 -47 -97 -47 -194 0 -109 14 -160 64 -235 51 -76 111 -122 215 -165 41 -17 107 -18 1214 -17 l1172 1 42 47 c50 55 60 84 43 124 -17 43 -76 98 -112 105 -18 3 -541 6 -1162 6 l-1131 -1 -37 42 c-49 57 -54 81 -26 137 19 40 177 315 208 362 5 8 16 29 24 45 8 17 29 53 45 80 17 28 35 59 40 70 5 11 33 61 63 110 30 50 72 122 93 160 56 102 64 117 85 150 11 17 24 39 30 50 6 11 19 34 30 50 11 17 23 37 26 45 7 15 86 151 104 180 6 8 14 24 19 35 7 16 117 204 161 275 5 8 20 35 33 60 14 25 34 61 46 80 11 19 25 44 30 55 5 11 21 37 35 58 14 21 26 40 26 42 0 3 18 35 41 71 22 37 45 77 50 88 5 12 20 39 32 61 13 22 36 63 51 90 16 28 33 53 39 57 6 4 31 -12 55 -34 l44 -41 71 6 c66 4 73 7 104 41 18 20 37 36 42 36 5 0 18 -21 30 -47 12 -27 28 -57 34 -68 7 -11 30 -51 52 -90 22 -38 45 -79 52 -90 7 -11 16 -27 20 -35 4 -8 40 -71 80 -139 40 -67 73 -124 73 -126 0 -2 26 -47 58 -102 32 -54 61 -105 65 -113 4 -8 16 -28 27 -45 11 -16 23 -37 27 -45 4 -8 26 -46 48 -85 23 -38 51 -90 64 -115 30 -61 68 -126 102 -178 16 -24 29 -45 29 -47 0 -1 34 -60 75 -129 41 -69 75 -128 75 -130 0 -2 34 -61 75 -130 41 -69 75 -130 75 -134 0 -20 96 -82 126 -82 17 0 75 31 93 50 25 26 51 76 51 99 0 11 -13 42 -28 68 -16 26 -31 55 -35 63 -4 8 -17 31 -28 50 -12 19 -36 62 -54 95 -18 33 -60 106 -94 163 -34 57 -61 106 -61 108 0 2 -13 23 -30 46 -16 22 -30 44 -30 49 0 4 -27 53 -60 109 -33 56 -60 103 -60 105 0 3 -25 46 -56 97 -31 50 -60 101 -65 113 -5 11 -13 27 -19 35 -14 22 -95 163 -103 180 -4 8 -16 29 -27 45 -11 17 -23 37 -27 45 -4 8 -40 70 -80 138 -40 68 -73 125 -73 127 0 3 -170 293 -190 325 -6 8 -14 24 -19 35 -5 11 -18 28 -29 38 -23 21 -22 22 41 120 20 31 49 79 63 105 14 26 34 61 45 77 10 17 22 37 26 45 4 8 19 36 34 61 24 41 60 105 100 179 34 64 39 92 22 143 -9 28 -31 63 -50 82 -35 34 -64 41 -171 44 -24 0 -42 10 -70 41 l-39 40 -324 0 -324 0 -41 -41z m22 -221 c28 -23 34 -23 337 -26 l309 -3 33 26 c28 21 44 25 99 25 36 0 67 -4 70 -8 4 -7 -60 -125 -104 -192 -6 -8 -15 -24 -20 -35 -6 -11 -19 -33 -30 -50 -10 -16 -29 -50 -42 -75 -12 -25 -27 -52 -34 -60 -6 -8 -26 -42 -44 -75 -18 -33 -36 -64 -41 -69 -5 -5 -32 -2 -67 8 -73 20 -181 21 -229 1 -69 -29 -81 -22 -128 70 -14 28 -34 64 -45 80 -11 17 -24 39 -30 50 -5 11 -14 27 -20 35 -71 111 -160 278 -160 301 0 16 8 19 59 19 45 0 65 -5 87 -22z m369 -798 c3 -6 3 -19 0 -30 -7 -23 -43 -27 -51 -5 -12 29 35 61 51 35z"/> <path d="M2620 8631 c-49 -8 -155 -42 -190 -61 -28 -15 -18 -23 55 -45 132 -39 243 -79 310 -111 29 -13 55 -24 58 -24 11 0 107 -61 195 -123 68 -48 298 -265 360 -339 20 -24 42 -12 37 20 -19 122 -39 222 -51 249 -8 17 -14 36 -14 43 0 11 -17 47 -41 90 -5 8 -13 25 -19 37 -5 12 -41 55 -80 96 -58 62 -87 83 -168 122 l-97 49 -155 2 c-85 1 -175 -1 -200 -5z"/> <path d="M2108 8362 c-68 -58 -162 -171 -146 -176 51 -16 117 -35 138 -39 14 -3 39 -10 55 -15 17 -6 57 -18 90 -27 99 -28 283 -102 338 -136 18 -10 39 -22 47 -26 28 -13 141 -93 192 -136 122 -102 270 -261 373 -400 27 -37 56 -67 66 -67 10 0 29 20 45 48 38 64 104 199 104 212 0 12 -25 53 -51 85 -192 234 -340 376 -494 472 -96 61 -285 137 -460 187 -33 10 -80 23 -105 31 -25 7 -69 16 -97 19 -50 5 -55 3 -95 -32z"/> <path d="M1837 7943 c-9 -32 -23 -103 -32 -158 -9 -55 -23 -135 -30 -178 -8 -42 -15 -101 -15 -130 0 -29 -5 -68 -10 -87 -6 -19 -14 -101 -19 -181 -5 -80 -14 -155 -20 -167 -6 -11 -11 -36 -11 -55 0 -46 -78 -283 -124 -377 -119 -241 -133 -258 -707 -830 -482 -481 -530 -539 -557 -685 -8 -46 -8 -72 1 -110 16 -66 31 -85 102 -131 55 -35 66 -38 130 -38 92 0 156 33 247 126 56 56 188 236 188 255 0 3 14 25 30 50 17 24 30 46 30 48 0 2 33 60 73 127 40 68 76 130 80 138 4 8 16 29 27 45 11 17 23 37 27 45 7 16 186 313 215 358 10 15 21 34 25 42 32 67 199 277 259 325 20 17 57 47 82 68 78 67 231 162 342 213 30 14 64 29 75 34 24 11 103 39 130 47 11 3 34 11 52 19 17 8 34 14 39 14 8 0 92 38 159 72 122 62 229 129 387 245 97 70 107 81 102 103 -3 14 -9 27 -13 30 -3 3 -31 37 -61 75 -227 293 -423 459 -655 554 -44 18 -93 39 -110 46 -40 18 -190 59 -277 75 -26 5 -56 13 -67 19 -11 6 -33 11 -49 11 -27 0 -30 -4 -45 -57z"/> <path d="M4135 7865 c-27 -8 -60 -14 -72 -15 -34 0 -144 -55 -211 -104 -32 -24 -84 -72 -115 -107 -67 -74 -147 -190 -141 -201 6 -10 48 -11 57 -2 11 12 121 54 139 54 9 0 19 4 23 9 3 5 20 12 38 16 17 4 50 13 72 20 131 43 439 61 615 34 95 -14 209 -29 235 -32 38 -4 16 36 -58 108 -121 118 -242 185 -393 219 -86 19 -122 19 -189 1z"/> <path d="M9643 7552 c-25 -20 -38 -61 -29 -97 4 -15 43 -53 107 -102 155 -120 464 -358 601 -462 68 -52 139 -108 159 -125 40 -34 70 -57 141 -108 92 -65 359 -271 365 -281 4 -6 7 -36 8 -67 3 -108 57 -180 162 -213 71 -23 90 -21 149 13 109 62 163 193 118 283 -49 97 -111 137 -212 137 -33 0 -64 -4 -67 -10 -15 -24 -62 -6 -136 52 -19 15 -115 89 -214 164 -99 76 -182 140 -185 144 -3 4 -122 95 -265 203 -143 108 -327 249 -410 312 -243 187 -250 190 -292 157z"/> <path d="M4095 7381 c-86 -20 -163 -41 -235 -64 -43 -14 -69 -24 -137 -53 -17 -8 -35 -14 -40 -14 -7 0 -91 -39 -163 -75 -36 -19 -47 -46 -65 -174 -15 -102 -16 -115 -1 -129 14 -14 24 -11 105 26 49 23 92 42 96 42 4 0 21 7 38 15 50 22 119 46 152 52 17 3 35 9 40 13 6 5 28 11 50 15 22 4 63 14 90 23 74 24 484 23 605 -2 179 -37 226 -48 271 -62 50 -15 115 -19 122 -6 6 10 -21 163 -42 234 -13 47 -22 59 -49 72 -18 9 -39 16 -46 16 -8 0 -36 6 -62 14 -160 46 -297 66 -489 71 -132 3 -174 1 -240 -14z"/> <path d="M6781 6984 c-44 -56 -36 -85 50 -174 29 -30 114 -118 189 -195 74 -77 173 -180 219 -230 47 -49 193 -202 326 -340 332 -343 352 -366 365 -417 20 -74 42 -104 170 -235 69 -71 181 -187 250 -258 644 -670 706 -732 746 -745 48 -16 112 2 153 42 52 51 53 112 3 186 -15 22 -144 161 -287 309 -247 255 -372 385 -530 552 -39 41 -120 125 -181 188 -105 106 -114 113 -151 113 -37 0 -46 7 -140 103 -55 56 -118 121 -139 143 -22 23 -136 142 -254 265 -747 778 -687 719 -731 719 -28 0 -42 -6 -58 -26z"/> <path d="M11265 6928 c-99 -8 -160 -16 -350 -49 -82 -14 -95 -18 -95 -33 0 -28 147 -136 184 -136 12 0 55 7 96 17 93 20 593 24 675 4 28 -6 76 -16 108 -21 64 -12 60 -10 172 -67 151 -76 178 -150 108 -293 -30 -60 -59 -97 -148 -186 -206 -208 -438 -361 -695 -459 -25 -10 -59 -24 -77 -31 -17 -8 -38 -14 -46 -14 -9 0 -18 -4 -22 -9 -3 -5 -20 -12 -38 -16 -17 -4 -50 -12 -72 -20 -51 -16 -125 -38 -195 -58 -30 -9 -79 -23 -109 -31 -29 -9 -62 -16 -72 -16 -11 0 -45 -6 -77 -14 -76 -19 -175 -33 -362 -51 -192 -18 -293 -18 -440 -1 -153 19 -189 28 -333 83 -127 48 -190 138 -166 237 28 118 150 263 341 408 65 49 118 94 118 101 0 7 -19 21 -42 31 -24 9 -58 24 -76 32 -47 20 -58 18 -110 -22 -80 -60 -252 -224 -291 -278 -98 -132 -143 -279 -120 -388 36 -166 225 -306 484 -358 212 -43 607 -41 885 4 130 21 200 35 258 51 28 8 78 22 110 31 143 40 326 96 367 114 11 5 65 28 120 50 173 72 377 178 491 256 340 232 534 476 534 671 0 122 -87 257 -210 327 -57 32 -76 40 -175 73 -195 65 -430 85 -730 61z"/> <path d="M8876 6889 c-14 -17 -26 -38 -26 -48 0 -16 48 -71 63 -71 3 0 28 -13 54 -28 27 -16 61 -32 77 -36 16 -4 59 -21 95 -38 36 -17 98 -45 138 -64 40 -18 100 -45 135 -60 59 -25 101 -44 326 -150 51 -24 97 -44 102 -44 5 0 45 -16 87 -36 43 -19 89 -40 103 -46 14 -5 39 -16 55 -24 163 -74 285 -127 306 -134 57 -18 69 -30 86 -92 13 -46 27 -71 58 -100 73 -71 134 -92 185 -63 14 8 35 14 47 15 12 0 40 15 64 33 33 26 45 44 60 92 26 84 23 111 -20 180 -30 49 -47 65 -91 87 -62 30 -96 34 -124 13 -11 -8 -29 -15 -40 -15 -12 0 -30 -7 -40 -15 -11 -8 -35 -15 -53 -15 -33 0 -54 8 -173 62 -36 16 -78 36 -95 43 -16 8 -73 34 -126 59 -53 25 -100 46 -105 46 -4 0 -15 6 -23 13 -9 7 -36 21 -61 31 -25 10 -73 31 -107 47 -35 16 -65 29 -68 29 -3 0 -48 20 -101 45 -52 25 -97 45 -100 45 -4 0 -103 44 -169 75 -16 8 -52 23 -80 34 -27 10 -86 36 -130 56 -44 21 -113 53 -153 71 -92 43 -122 44 -156 3z"/> <path d="M4058 6870 c-83 -19 -224 -63 -275 -86 -17 -8 -36 -14 -41 -14 -6 0 -23 -7 -39 -15 -15 -8 -59 -28 -98 -45 -89 -39 -97 -43 -108 -62 -11 -17 62 -169 215 -448 16 -28 94 -158 118 -195 60 -92 122 -200 148 -255 47 -102 62 -137 62 -148 0 -5 7 -23 15 -38 8 -16 15 -38 15 -49 0 -10 6 -37 14 -60 22 -63 37 -142 46 -240 9 -103 3 -333 -11 -385 -5 -19 -14 -80 -19 -135 -5 -55 -13 -120 -19 -145 -5 -25 -15 -83 -20 -130 -6 -47 -13 -101 -16 -120 -3 -19 -13 -87 -21 -150 -9 -63 -22 -146 -29 -185 -7 -38 -19 -130 -26 -203 -14 -149 -3 -257 34 -341 27 -61 91 -127 142 -147 39 -14 53 -15 112 -4 117 21 167 68 215 202 21 58 23 79 22 258 -1 131 -7 225 -18 285 -9 50 -16 110 -16 134 0 24 -7 83 -15 130 -8 47 -21 163 -30 256 -9 94 -23 224 -31 290 -20 171 -18 352 5 461 35 164 40 180 87 307 37 99 81 194 108 232 12 16 26 37 31 47 10 18 87 141 117 187 24 38 102 197 128 261 12 30 28 70 36 88 8 18 14 39 14 47 0 8 6 29 14 47 8 18 22 60 31 93 10 33 24 75 31 93 25 58 19 77 -28 94 -68 25 -262 69 -403 93 -125 21 -394 18 -497 -5z"/> <path d="M10320 6725 c-41 -23 -159 -75 -169 -75 -21 0 -141 -60 -141 -71 0 -16 24 -34 85 -63 84 -41 92 -41 206 2 57 21 132 47 166 58 76 23 80 40 21 83 -24 17 -47 34 -53 38 -55 45 -74 50 -115 28z"/> <path d="M12397 6228 c-15 -13 -40 -50 -58 -83 -72 -137 -157 -227 -375 -402 -53 -42 -131 -98 -176 -125 -42 -25 -47 -48 -23 -94 8 -16 15 -36 15 -45 0 -8 7 -38 15 -65 16 -50 30 -96 59 -194 9 -30 36 -123 61 -207 25 -83 45 -158 45 -166 0 -8 7 -28 15 -43 8 -16 15 -37 15 -48 0 -16 16 -73 43 -148 12 -37 34 -36 99 4 193 116 417 344 455 463 14 42 27 33 31 -19 2 -36 -5 -61 -35 -122 -99 -201 -379 -426 -753 -605 -58 -27 -113 -54 -123 -60 -24 -13 -193 -70 -237 -80 -19 -4 -48 -12 -65 -17 -44 -15 -184 -56 -302 -88 -32 -9 -72 -20 -89 -25 -30 -9 -67 -15 -289 -44 -202 -26 -550 -3 -741 49 -109 30 -215 92 -256 148 -29 42 -11 55 33 22 65 -49 189 -94 319 -115 41 -6 157 -14 258 -16 l182 -5 0 24 c0 14 -6 44 -14 69 -7 24 -22 71 -31 104 -10 33 -24 78 -30 100 -7 22 -21 67 -30 100 -10 33 -21 71 -25 85 -13 41 -51 171 -66 225 -7 28 -20 73 -28 100 -7 28 -21 79 -31 115 -9 36 -23 79 -30 96 l-14 32 -228 5 c-125 2 -244 9 -263 15 -19 5 -69 18 -110 27 -109 25 -246 84 -294 126 -45 40 -86 58 -86 38 0 -13 8 -45 52 -194 35 -123 57 -198 74 -250 7 -22 20 -67 29 -100 17 -64 40 -144 60 -210 15 -48 34 -113 75 -255 17 -58 34 -118 39 -135 5 -16 15 -49 20 -72 11 -42 101 -144 146 -165 11 -5 40 -20 65 -33 25 -13 51 -24 58 -24 8 -1 28 -7 45 -15 49 -21 152 -45 257 -58 184 -25 629 -7 723 28 20 8 65 14 98 14 34 0 82 7 108 14 25 8 73 23 106 32 33 9 78 23 100 30 22 6 114 34 205 60 91 27 180 58 198 70 18 13 46 26 63 29 17 4 42 13 57 21 15 8 32 14 37 14 11 0 145 68 225 114 25 14 54 30 65 36 130 69 319 215 435 336 79 83 103 116 145 199 47 96 49 103 49 186 0 73 -4 96 -30 160 -39 93 -54 134 -64 179 -8 32 -24 86 -66 225 -23 78 -30 101 -64 230 -48 178 -58 215 -76 275 -9 30 -22 74 -28 97 -15 56 -19 58 -49 31z"/> <path d="M11515 5474 c-49 -25 -112 -55 -140 -66 -27 -11 -63 -26 -80 -33 -88 -39 -105 -45 -123 -45 -12 0 -23 -4 -27 -9 -3 -5 -20 -12 -38 -16 -17 -4 -54 -14 -82 -22 -118 -36 -144 -43 -215 -56 -89 -18 -227 -42 -325 -57 -131 -21 -127 -18 -101 -95 19 -55 40 -128 61 -205 10 -36 33 -114 51 -175 18 -60 38 -128 44 -150 6 -22 16 -53 22 -70 5 -16 14 -46 18 -65 11 -45 35 -125 51 -170 7 -19 19 -54 27 -77 16 -48 26 -50 127 -33 28 4 82 13 120 19 39 6 95 18 125 27 95 28 143 41 210 59 36 10 83 23 105 30 22 7 67 21 100 30 104 30 208 66 275 97 119 55 165 78 184 93 22 16 22 12 -30 185 -51 171 -74 251 -89 305 -20 71 -42 145 -54 180 -5 17 -16 55 -25 85 -55 204 -78 273 -91 277 -5 1 -50 -18 -100 -43z"/> <path d="M4310 2431 c-101 -27 -139 -48 -200 -110 -67 -66 -94 -121 -110 -224 -16 -95 -2 -161 47 -234 30 -45 129 -133 149 -133 4 0 15 -6 23 -14 9 -7 43 -28 76 -46 131 -72 198 -125 236 -187 18 -29 22 -50 22 -118 0 -79 -2 -85 -34 -127 -67 -86 -119 -109 -246 -110 -78 0 -98 3 -134 23 -66 37 -96 88 -101 177 -5 79 -26 118 -50 94 -14 -14 -26 -120 -27 -226 -1 -62 1 -71 27 -94 37 -34 109 -53 221 -59 96 -5 178 9 244 43 16 8 33 14 38 14 5 0 32 17 59 37 99 74 150 179 150 308 0 87 -18 141 -67 202 -45 56 -98 94 -233 165 -139 73 -204 124 -245 188 -21 34 -25 52 -25 120 0 68 4 86 25 119 111 176 386 152 439 -38 9 -32 16 -69 16 -83 0 -27 20 -41 44 -32 18 7 29 228 13 264 -12 25 -71 59 -137 79 -69 20 -152 21 -220 2z"/> <path d="M6155 2443 c-11 -2 -49 -11 -84 -19 -58 -14 -77 -21 -121 -45 -8 -5 -30 -16 -48 -25 -47 -24 -161 -138 -204 -204 -143 -222 -169 -567 -59 -790 54 -109 59 -115 130 -182 111 -106 194 -138 351 -138 144 0 256 40 380 135 71 55 93 79 88 101 -5 30 -21 26 -93 -22 -190 -126 -348 -147 -501 -67 -93 49 -185 187 -230 343 -26 91 -26 348 0 435 64 213 154 324 302 375 188 65 412 -35 444 -198 17 -86 26 -105 48 -93 16 9 20 28 26 126 6 107 5 119 -14 150 -23 37 -105 82 -175 97 -131 27 -189 32 -240 21z"/> <path d="M1055 2410 c-22 -4 -70 -12 -107 -19 -77 -13 -118 -29 -118 -46 0 -25 26 -35 95 -35 106 0 105 2 105 -216 0 -195 -12 -394 -37 -574 -17 -128 -68 -350 -89 -392 -8 -15 -14 -36 -14 -48 0 -17 6 -20 49 -20 86 0 94 7 113 96 9 44 20 131 23 194 4 63 10 135 15 160 5 25 12 175 14 335 4 264 11 334 29 278 3 -10 22 -63 42 -118 20 -55 40 -113 45 -130 4 -16 18 -55 30 -85 12 -30 26 -68 30 -85 5 -16 32 -95 60 -175 28 -80 55 -158 60 -175 4 -16 14 -46 21 -65 6 -19 17 -51 24 -70 7 -19 18 -51 25 -70 7 -19 15 -48 17 -63 6 -33 29 -46 47 -26 7 8 70 149 141 314 144 338 170 398 190 438 8 16 15 33 15 38 0 10 52 126 76 171 8 14 14 32 14 40 0 8 12 25 26 39 l27 24 -7 -35 c-4 -19 -9 -232 -13 -473 -5 -399 -4 -442 12 -483 24 -64 77 -98 142 -92 46 5 64 10 158 46 55 21 83 48 67 64 -9 9 -25 9 -70 0 -75 -15 -113 -3 -141 44 -20 34 -21 50 -21 397 1 199 5 382 10 407 5 25 12 122 16 217 8 197 6 203 -60 203 -53 0 -73 -20 -116 -115 -53 -118 -58 -128 -83 -185 -14 -30 -38 -84 -55 -120 -16 -36 -49 -110 -72 -165 -23 -55 -46 -104 -51 -110 -5 -5 -9 -15 -9 -22 0 -7 -14 -42 -30 -78 -17 -36 -44 -94 -60 -130 -16 -36 -30 -71 -30 -78 0 -19 -37 -50 -49 -42 -6 3 -11 15 -11 25 0 11 -6 34 -14 52 -17 41 -35 94 -46 133 -5 17 -25 75 -45 130 -19 55 -42 119 -50 142 -9 23 -29 79 -46 125 -17 46 -34 98 -39 117 -5 18 -13 38 -19 44 -6 6 -11 23 -11 37 0 14 -7 35 -15 46 -8 10 -15 26 -15 35 0 25 -40 112 -63 137 -22 23 -54 26 -132 12z"/> <path d="M2634 2400 c-103 -18 -144 -35 -144 -57 0 -15 24 -21 107 -26 85 -5 93 -14 92 -101 0 -39 -5 -96 -10 -126 -5 -30 -13 -104 -18 -165 -5 -60 -15 -157 -21 -215 -14 -119 -9 -320 10 -395 27 -106 53 -156 105 -201 27 -24 55 -44 61 -44 7 0 25 -7 40 -15 42 -22 146 -19 213 6 68 24 161 94 222 166 41 48 109 170 124 221 7 24 24 30 26 10 1 -7 2 -76 3 -153 1 -111 6 -149 20 -183 33 -76 115 -99 216 -62 133 49 149 59 150 88 0 15 -37 16 -96 1 -59 -15 -99 1 -125 52 -18 36 -19 60 -18 391 0 194 5 391 10 438 14 117 25 335 18 362 -5 21 -11 23 -58 22 -90 -3 -84 21 -112 -449 -13 -229 -35 -353 -84 -470 -72 -172 -170 -279 -294 -318 -71 -23 -93 -22 -149 7 -77 40 -115 114 -135 264 -9 66 -7 125 7 300 10 119 22 244 26 277 18 118 30 287 24 322 -12 65 -66 79 -210 53z"/> <path d="M5002 2400 c-114 -19 -159 -43 -126 -67 10 -7 42 -13 71 -13 30 0 68 -7 84 -16 l31 -15 -5 -377 c-3 -207 -10 -480 -16 -606 -7 -137 -8 -233 -2 -239 5 -5 38 -6 74 -2 l65 7 5 107 c20 373 26 573 28 856 0 176 -2 328 -6 337 -7 18 -64 49 -87 47 -7 -1 -59 -9 -116 -19z"/> <path d="M7350 2393 c-24 -23 -129 -221 -205 -388 -7 -16 -28 -61 -45 -100 -59 -129 -103 -220 -115 -235 -6 -8 -18 -35 -25 -60 -8 -25 -27 -74 -43 -110 -16 -36 -35 -78 -43 -95 -17 -40 -63 -142 -107 -235 -19 -41 -38 -86 -42 -99 l-7 -24 63 7 c36 4 72 15 82 24 17 15 57 95 57 114 0 6 6 24 14 41 8 18 23 59 35 92 11 33 30 85 42 115 12 30 23 67 26 82 3 14 15 35 27 46 19 18 42 21 217 27 l197 7 16 -48 c9 -27 20 -69 25 -94 16 -79 43 -175 52 -185 5 -5 9 -17 9 -26 0 -21 37 -106 62 -141 21 -31 97 -68 137 -68 14 1 37 7 51 15 14 8 36 15 50 15 14 0 43 11 65 23 70 39 52 82 -24 57 -32 -10 -43 -10 -72 5 -19 10 -45 27 -57 39 -25 22 -80 130 -92 181 -4 17 -19 73 -32 125 -14 52 -33 131 -42 175 -10 44 -24 103 -32 131 -8 28 -14 66 -14 85 -1 19 -7 52 -15 74 -8 22 -15 54 -15 70 0 17 -6 62 -14 100 -8 39 -20 97 -26 130 -31 157 -29 155 -92 155 -27 0 -46 -8 -68 -27z m17 -164 c8 -70 52 -313 80 -441 8 -42 13 -83 10 -91 -3 -8 -20 -17 -37 -21 -49 -9 -308 -7 -314 3 -3 5 3 31 15 57 26 63 30 71 74 179 21 50 48 115 62 145 13 30 30 69 37 85 32 72 51 105 61 102 5 -2 11 -10 12 -18z"/> <path d="M8204 2397 c-113 -24 -157 -47 -136 -68 8 -9 38 -14 81 -14 90 0 107 -15 116 -98 3 -34 1 -138 -5 -232 -5 -93 -14 -237 -19 -320 -5 -82 -14 -163 -20 -178 -6 -16 -11 -46 -11 -69 0 -50 -23 -160 -56 -261 -14 -42 -22 -82 -19 -87 7 -11 57 -13 102 -4 25 5 32 14 46 57 22 69 45 391 53 745 4 155 10 282 13 282 18 -1 52 -54 249 -383 7 -12 21 -34 30 -49 9 -15 50 -82 91 -150 41 -68 90 -148 110 -178 54 -84 61 -94 68 -110 21 -45 138 -206 154 -212 26 -10 66 6 72 29 3 10 8 173 12 363 4 190 11 377 16 415 5 39 13 113 18 167 5 53 12 102 17 110 5 7 11 33 15 58 4 25 17 70 29 100 12 30 23 66 24 80 1 23 -3 25 -46 28 -96 6 -117 -25 -134 -201 -7 -73 -17 -293 -20 -489 -5 -254 -10 -358 -18 -358 -7 0 -36 41 -66 91 -30 50 -62 101 -70 114 -8 13 -68 111 -133 217 -65 106 -123 200 -128 208 -24 40 -126 217 -132 230 -4 8 -16 29 -27 45 -11 17 -23 37 -27 45 -23 52 -83 100 -123 99 -14 0 -71 -10 -126 -22z"/> <path d="M9562 2396 c-109 -24 -126 -33 -120 -62 3 -16 15 -20 80 -24 42 -3 82 -10 88 -16 16 -16 8 -615 -9 -734 -30 -216 -54 -329 -87 -425 -26 -75 -23 -78 52 -72 36 2 67 7 70 10 17 17 44 174 44 257 0 52 6 165 11 250 6 85 14 247 18 359 3 122 10 206 16 207 6 2 62 -82 125 -187 63 -105 123 -203 132 -217 10 -15 21 -34 25 -42 4 -8 19 -33 34 -55 14 -22 37 -59 50 -82 20 -35 67 -111 129 -208 24 -37 104 -165 115 -184 6 -9 24 -35 40 -59 28 -39 33 -42 70 -40 l40 3 7 230 c9 270 33 656 49 770 10 75 27 151 51 220 30 88 33 106 18 116 -24 16 -99 4 -124 -20 -14 -14 -27 -43 -35 -84 -15 -74 -30 -430 -30 -719 -1 -239 -5 -247 -69 -150 -21 32 -41 64 -45 72 -4 8 -15 27 -25 42 -9 15 -51 81 -92 148 -41 67 -83 133 -92 148 -10 15 -22 36 -27 47 -5 11 -21 37 -35 58 -14 21 -26 39 -26 41 0 2 -34 61 -75 131 -41 69 -75 128 -75 131 0 2 -19 33 -41 69 -43 66 -85 96 -131 94 -12 -1 -69 -11 -126 -23z"/> <path d="M11394 2401 c-24 -15 -48 -54 -107 -173 -74 -151 -134 -278 -176 -370 -11 -27 -31 -69 -42 -95 -12 -27 -33 -62 -45 -80 -13 -17 -24 -41 -24 -52 0 -12 -20 -64 -45 -117 -25 -52 -45 -97 -45 -99 0 -2 -18 -43 -41 -92 -22 -48 -50 -108 -61 -133 -11 -25 -27 -59 -36 -76 -22 -45 -11 -64 38 -64 23 0 53 6 69 14 26 14 36 32 76 136 9 25 23 60 31 78 8 18 14 39 14 47 0 8 6 29 14 47 8 18 21 51 29 73 50 131 52 134 77 139 14 3 104 8 201 12 l176 6 17 -23 c9 -13 18 -39 21 -59 13 -84 67 -265 101 -337 35 -75 56 -101 99 -124 43 -23 75 -24 140 -3 117 39 140 51 143 78 3 22 -1 26 -21 26 -13 0 -38 -5 -55 -11 -82 -29 -185 98 -221 272 -4 19 -10 40 -14 46 -6 9 -28 104 -47 198 -4 22 -20 96 -34 165 -14 69 -33 161 -41 205 -9 44 -22 108 -30 142 -8 34 -15 79 -15 100 0 21 -9 61 -19 88 -18 47 -21 50 -57 53 -25 1 -50 -5 -70 -17z m0 -168 c3 -10 10 -47 16 -83 16 -98 39 -217 55 -290 8 -36 17 -90 21 -122 l6 -56 -53 -7 c-30 -3 -108 -5 -174 -3 l-120 3 2 28 c1 15 45 130 99 255 53 125 103 242 111 260 15 35 29 41 37 15z"/> </g> </svg> 